<?xml version="1.0" encoding="iso-8859-1"?>
<!-- Generator: Adobe Illustrator 18.0.0, SVG Export Plug-In . SVG Version: 6.00 Build 0)  -->
<!DOCTYPE svg PUBLIC "-//W3C//DTD SVG 1.1//EN" "http://www.w3.org/Graphics/SVG/1.1/DTD/svg11.dtd">
<svg version="1.1" id="Capa_1" xmlns="http://www.w3.org/2000/svg" xmlns:xlink="http://www.w3.org/1999/xlink" x="0px" y="0px"
	 viewBox="0 0 55.757 55.757" style="enable-background:new 0 0 55.757 55.757;" xml:space="preserve">
<g>
	<path d="M38.378,29.757c-7.168,0-13,5.832-13,13s5.832,13,13,13s13-5.832,13-13S45.547,29.757,38.378,29.757z M38.378,53.757
		c-6.065,0-11-4.935-11-11s4.935-11,11-11s11,4.935,11,11S44.444,53.757,38.378,53.757z"/>
	<path d="M44.378,41.757h-5v-5c0-0.553-0.448-1-1-1s-1,0.447-1,1v5h-5c-0.552,0-1,0.447-1,1s0.448,1,1,1h5v5c0,0.553,0.448,1,1,1
		s1-0.447,1-1v-5h5c0.552,0,1-0.447,1-1S44.931,41.757,44.378,41.757z"/>
	<path d="M38.378,26.757c1.129,0,2.23,0.121,3.294,0.345c2.336-7.301,0.713-16.215-4.557-21.484C33.493,1.995,28.678,0,23.555,0
		c-5.123,0-9.938,1.995-13.56,5.617C3.293,12.319,2.46,24.929,8.192,32.569l15.363,22.188l1.85-2.672
		c-1.896-2.63-3.027-5.846-3.027-9.328C22.378,33.935,29.556,26.757,38.378,26.757z M16.732,19c0-3.859,3.141-7,7-7s7,3.141,7,7
		s-3.141,7-7,7S16.732,22.859,16.732,19z"/>
</g>
<g>
</g>
<g>
</g>
<g>
</g>
<g>
</g>
<g>
</g>
<g>
</g>
<g>
</g>
<g>
</g>
<g>
</g>
<g>
</g>
<g>
</g>
<g>
</g>
<g>
</g>
<g>
</g>
<g>
</g>
</svg>
