<?xml version="1.0" encoding="iso-8859-1"?>
<!-- Generator: Adobe Illustrator 18.0.0, SVG Export Plug-In . SVG Version: 6.00 Build 0)  -->
<!DOCTYPE svg PUBLIC "-//W3C//DTD SVG 1.1//EN" "http://www.w3.org/Graphics/SVG/1.1/DTD/svg11.dtd">
<svg version="1.1" id="Capa_1" xmlns="http://www.w3.org/2000/svg" xmlns:xlink="http://www.w3.org/1999/xlink" x="0px" y="0px"
	 viewBox="0 0 51.347 51.347" style="enable-background:new 0 0 51.347 51.347;" xml:space="preserve">
<g>
	<path d="M47.975,27.48l-2.85-2.85c-1.128-1.127-3.092-1.127-4.221,0L25.513,40.021l-2.121,7.779l-0.519,0.519
		c-0.388,0.388-0.389,1.014-0.006,1.405l-0.005,0.02l0.019-0.005c0.194,0.191,0.446,0.288,0.699,0.288
		c0.256,0,0.512-0.098,0.707-0.293l0.52-0.52l7.778-2.121l15.39-15.391C49.139,30.538,49.139,28.645,47.975,27.48z M27.822,40.541
		l10.243-10.243l4.243,4.243L32.065,44.784L27.822,40.541z M26.92,42.467l3.22,3.22l-4.428,1.207L26.92,42.467z M46.561,30.288
		l-2.839,2.839l-4.243-4.242l2.839-2.839c0.373-0.373,1.022-0.372,1.394-0.001l2.85,2.85C46.945,29.278,46.945,29.904,46.561,30.288
		z"/>
	<path d="M38.783,22.51c0.59-0.589,1.282-1.037,2.034-1.334c0.215-5.762-1.682-11.66-5.582-15.559C31.614,1.995,26.798,0,21.676,0
		c-5.123,0-9.938,1.995-13.56,5.617C1.413,12.319,0.58,24.929,6.313,32.569l13.002,18.778l3.513-12.883L38.783,22.51z M14.853,19
		c0-3.859,3.141-7,7-7s7,3.141,7,7s-3.141,7-7,7S14.853,22.859,14.853,19z"/>
</g>
<g>
</g>
<g>
</g>
<g>
</g>
<g>
</g>
<g>
</g>
<g>
</g>
<g>
</g>
<g>
</g>
<g>
</g>
<g>
</g>
<g>
</g>
<g>
</g>
<g>
</g>
<g>
</g>
<g>
</g>
</svg>
