<?xml version="1.0" encoding="iso-8859-1"?>
<!-- Generator: Adobe Illustrator 16.0.0, SVG Export Plug-In . SVG Version: 6.00 Build 0)  -->
<!DOCTYPE svg PUBLIC "-//W3C//DTD SVG 1.1//EN" "http://www.w3.org/Graphics/SVG/1.1/DTD/svg11.dtd">
<svg version="1.1" id="Capa_1" xmlns="http://www.w3.org/2000/svg" xmlns:xlink="http://www.w3.org/1999/xlink" x="0px" y="0px"
	 width="106.048px" height="106.048px" viewBox="0 0 106.048 106.048" style="enable-background:new 0 0 106.048 106.048;"
	 xml:space="preserve">
<g>
	<path style="fill:#010002;" d="M84.838,0H21.209C9.543,0,0,9.543,0,21.209v63.629c0,11.666,9.543,21.21,21.209,21.21h63.628
		c11.667,0,21.21-9.544,21.21-21.21V21.209C106.048,9.543,96.505,0,84.838,0z M42.976,85.397l-6.685-6.685L22.217,92.792
		l-8.961-8.958l14.077-14.069l-6.685-6.685h22.323v22.317H42.976z M42.965,42.976H20.658l6.68-6.693L13.256,22.222l8.961-8.966
		L36.296,27.34l6.685-6.692L42.965,42.976z M53.023,62.748c-5.367,0-9.714-4.35-9.714-9.725c0-5.367,4.347-9.714,9.714-9.714
		c5.365,0,9.72,4.347,9.72,9.714C62.743,58.398,58.389,62.748,53.023,62.748z M83.834,92.792L69.76,78.718l-6.68,6.68V63.08h22.317
		l-6.68,6.685l14.069,14.069L83.834,92.792z M78.718,36.288l6.69,6.692l-22.328-0.01V20.658l6.685,6.682l14.069-14.084l8.958,8.955
		L78.718,36.288z"/>
</g>
<g>
</g>
<g>
</g>
<g>
</g>
<g>
</g>
<g>
</g>
<g>
</g>
<g>
</g>
<g>
</g>
<g>
</g>
<g>
</g>
<g>
</g>
<g>
</g>
<g>
</g>
<g>
</g>
<g>
</g>
</svg>
