<?xml version="1.0" encoding="iso-8859-1"?>
<!-- Generator: Adobe Illustrator 16.0.0, SVG Export Plug-In . SVG Version: 6.00 Build 0)  -->
<!DOCTYPE svg PUBLIC "-//W3C//DTD SVG 1.1//EN" "http://www.w3.org/Graphics/SVG/1.1/DTD/svg11.dtd">
<svg xmlns="http://www.w3.org/2000/svg" xmlns:xlink="http://www.w3.org/1999/xlink" version="1.1" id="Capa_1" x="0px" y="0px" width="512px" height="512px" viewBox="0 0 62.285 62.285" style="enable-background:new 0 0 62.285 62.285;" xml:space="preserve">
<g>
	<g>
		<path d="M61.682,35.174L47.865,21.355v-9.112c0-1.136-0.921-2.055-2.057-2.055c-1.135,0-2.055,0.919-2.055,2.055v5.002    l-9.748-9.748c-0.806-0.803-2.104-0.803-2.907,0L18.345,20.25c-0.804,0.803-0.804,2.105,0,2.908c0.803,0.803,2.104,0.803,2.906,0    L32.55,11.856l26.225,26.225c0.4,0.4,0.928,0.603,1.453,0.603s1.053-0.199,1.453-0.603C62.485,37.277,62.485,35.977,61.682,35.174    z" fill="#D80027"/>
		<path d="M55.801,37.534L34.006,15.737c-0.387-0.385-0.908-0.602-1.453-0.602c-0.547,0-1.067,0.217-1.453,0.602l-8.375,8.375    c5.542,2.765,9.514,8.216,10.199,14.65c1.694,0.337,2.96,1.832,2.96,3.604v7.812c0,1.251,0.472,2.45,1.322,3.372    c0.938,1.014,2.268,1.597,3.646,1.597h10.638c2.739,0,4.97-2.229,4.97-4.969V39.542c0-0.312-0.031-0.629-0.093-0.941    C56.288,38.194,56.092,37.825,55.801,37.534z" fill="#D80027"/>
		<path d="M15.564,24.264C6.968,24.264,0,31.231,0,39.828C0,48.424,6.969,55.39,15.564,55.39c8.597,0,15.564-6.971,15.564-15.562    C31.129,31.231,24.16,24.264,15.564,24.264z M25.225,36.67l-9.946,9.947c-0.502,0.502-1.159,0.754-1.816,0.754    c-0.657,0-1.315-0.252-1.816-0.754l-5.744-5.744c-1.004-1.004-1.004-2.631,0-3.636c1.003-1.004,2.631-1.004,3.634,0l3.927,3.931    l8.131-8.131c1.002-1.003,2.63-1.003,3.633,0C26.23,34.042,26.23,35.668,25.225,36.67z" fill="#D80027"/>
	</g>
</g>
<g>
</g>
<g>
</g>
<g>
</g>
<g>
</g>
<g>
</g>
<g>
</g>
<g>
</g>
<g>
</g>
<g>
</g>
<g>
</g>
<g>
</g>
<g>
</g>
<g>
</g>
<g>
</g>
<g>
</g>
</svg>
