<?xml version="1.0" encoding="iso-8859-1"?>
<!-- Generator: Adobe Illustrator 18.0.0, SVG Export Plug-In . SVG Version: 6.00 Build 0)  -->
<!DOCTYPE svg PUBLIC "-//W3C//DTD SVG 1.1//EN" "http://www.w3.org/Graphics/SVG/1.1/DTD/svg11.dtd">
<svg xmlns="http://www.w3.org/2000/svg" xmlns:xlink="http://www.w3.org/1999/xlink" version="1.1" id="Capa_1" x="0px" y="0px" viewBox="0 0 55 55" style="enable-background:new 0 0 55 55;" xml:space="preserve" width="512px" height="512px">
<g>
	<path d="M47,37v-1c0-3.859-3.14-7-7-7s-7,3.141-7,7v1h-4v18h22V37H47z M35,36c0-2.757,2.243-5,5-5s5,2.243,5,5v1H35V36z M49,53H31   V39h2h14h2V53z" fill="#D80027"/>
	<path d="M40,41c-2.206,0-4,1.794-4,4c0,1.859,1.28,3.411,3,3.858V50c0,0.553,0.448,1,1,1s1-0.447,1-1v-1.142   c1.72-0.447,3-1.999,3-3.858C44,42.794,42.206,41,40,41z M40,47c-1.103,0-2-0.897-2-2s0.897-2,2-2s2,0.897,2,2S41.103,47,40,47z" fill="#D80027"/>
	<path d="M40,26c0.544,0,1.074,0.056,1.595,0.14c1.901-7.108,0.181-15.484-4.858-20.522C33.115,1.995,28.299,0,23.177,0   c-5.123,0-9.938,1.995-13.56,5.617c-6.703,6.702-7.536,19.312-1.804,26.952l15.363,22.188L26,50.68V34h4.202   C31.131,29.441,35.171,26,40,26z M23.354,26c-3.859,0-7-3.141-7-7s3.141-7,7-7s7,3.141,7,7S27.213,26,23.354,26z" fill="#D80027"/>
</g>
<g>
</g>
<g>
</g>
<g>
</g>
<g>
</g>
<g>
</g>
<g>
</g>
<g>
</g>
<g>
</g>
<g>
</g>
<g>
</g>
<g>
</g>
<g>
</g>
<g>
</g>
<g>
</g>
<g>
</g>
</svg>
