<?xml version="1.0" encoding="iso-8859-1"?>
<!-- Generator: Adobe Illustrator 18.0.0, SVG Export Plug-In . SVG Version: 6.00 Build 0)  -->
<!DOCTYPE svg PUBLIC "-//W3C//DTD SVG 1.1//EN" "http://www.w3.org/Graphics/SVG/1.1/DTD/svg11.dtd">
<svg xmlns="http://www.w3.org/2000/svg" xmlns:xlink="http://www.w3.org/1999/xlink" version="1.1" id="Capa_1" x="0px" y="0px" viewBox="0 0 57.738 57.738" style="enable-background:new 0 0 57.738 57.738;" xml:space="preserve" width="512px" height="512px">
<g>
	<path d="M54.592,56.047l-5.969-6.244c1.746-1.919,2.82-4.458,2.82-7.25c0-5.953-4.843-10.796-10.796-10.796   S29.851,36.6,29.851,42.553s4.843,10.796,10.796,10.796c2.441,0,4.688-0.824,6.499-2.196l6.001,6.277   c0.196,0.205,0.459,0.309,0.723,0.309c0.249,0,0.497-0.092,0.691-0.277C54.959,57.079,54.974,56.446,54.592,56.047z M31.851,42.553   c0-4.85,3.946-8.796,8.796-8.796s8.796,3.946,8.796,8.796s-3.946,8.796-8.796,8.796S31.851,47.402,31.851,42.553z" fill="#960202"/>
	<path d="M39.528,28.813c3.21-7.569,1.768-17.507-3.922-23.196C31.984,1.995,27.168,0,22.046,0c-5.123,0-9.938,1.995-13.56,5.617   c-6.703,6.702-7.536,19.312-1.804,26.952l15.363,22.188l5.49-7.93c-0.44-1.347-0.686-2.782-0.686-4.274   C26.851,35.323,32.443,29.386,39.528,28.813z M15.223,19c0-3.859,3.141-7,7-7s7,3.141,7,7s-3.141,7-7,7S15.223,22.859,15.223,19z" fill="#960202"/>
</g>
<g>
</g>
<g>
</g>
<g>
</g>
<g>
</g>
<g>
</g>
<g>
</g>
<g>
</g>
<g>
</g>
<g>
</g>
<g>
</g>
<g>
</g>
<g>
</g>
<g>
</g>
<g>
</g>
<g>
</g>
</svg>
