<?xml version="1.0" encoding="iso-8859-1"?>
<!-- Generator: Adobe Illustrator 18.0.0, SVG Export Plug-In . SVG Version: 6.00 Build 0)  -->
<!DOCTYPE svg PUBLIC "-//W3C//DTD SVG 1.1//EN" "http://www.w3.org/Graphics/SVG/1.1/DTD/svg11.dtd">
<svg xmlns="http://www.w3.org/2000/svg" xmlns:xlink="http://www.w3.org/1999/xlink" version="1.1" id="Capa_1" x="0px" y="0px" viewBox="0 0 54.757 54.757" style="enable-background:new 0 0 54.757 54.757;" xml:space="preserve" width="512px" height="512px">
<g>
	<path d="M41.047,27.757c-3.764,0-7.317,1.581-9.75,4.338c-0.365,0.415-0.326,1.047,0.088,1.412   c0.414,0.366,1.045,0.327,1.412-0.088c2.053-2.327,5.061-3.662,8.25-3.662c6.065,0,11,4.935,11,11s-4.935,11-11,11   c-4.992,0-9.407-3.367-10.741-8h4.741v-2h-8v8h2v-3.663c2.093,4.531,6.781,7.663,12,7.663c7.168,0,13-5.832,13-13   S48.215,27.757,41.047,27.757z" fill="#f2046f"/>
	<path d="M38.609,24.776c1.353-6.792-0.441-14.438-5.162-19.158C29.824,1.995,25.009,0,19.887,0c-5.123,0-9.938,1.995-13.56,5.617   c-6.703,6.702-7.536,19.312-1.804,26.952l15.363,22.188l5.182-7.485c-0.891-1.993-1.397-4.194-1.397-6.515   C23.673,32.286,30.28,25.346,38.609,24.776z M13.064,19c0-3.859,3.141-7,7-7s7,3.141,7,7s-3.141,7-7,7S13.064,22.859,13.064,19z" fill="#f2046f"/>
</g>
<g>
</g>
<g>
</g>
<g>
</g>
<g>
</g>
<g>
</g>
<g>
</g>
<g>
</g>
<g>
</g>
<g>
</g>
<g>
</g>
<g>
</g>
<g>
</g>
<g>
</g>
<g>
</g>
<g>
</g>
</svg>
