<?xml version="1.0" encoding="iso-8859-1"?>
<!-- Generator: Adobe Illustrator 18.0.0, SVG Export Plug-In . SVG Version: 6.00 Build 0)  -->
<!DOCTYPE svg PUBLIC "-//W3C//DTD SVG 1.1//EN" "http://www.w3.org/Graphics/SVG/1.1/DTD/svg11.dtd">
<svg xmlns="http://www.w3.org/2000/svg" xmlns:xlink="http://www.w3.org/1999/xlink" version="1.1" id="Capa_1" x="0px" y="0px" viewBox="0 0 55.757 55.757" style="enable-background:new 0 0 55.757 55.757;" xml:space="preserve" width="512px" height="512px">
<g>
	<path d="M38.055,29.757c-7.168,0-13,5.832-13,13s5.832,13,13,13s13-5.832,13-13S45.224,29.757,38.055,29.757z M38.055,53.757   c-6.065,0-11-4.935-11-11s4.935-11,11-11s11,4.935,11,11S44.121,53.757,38.055,53.757z" fill="#428214"/>
	<path d="M43.234,37.186l-5.596,8.04l-3.949-3.241c-0.427-0.352-1.056-0.288-1.407,0.138c-0.351,0.427-0.289,1.058,0.139,1.407   l4.786,3.929c0.18,0.148,0.404,0.228,0.634,0.228c0.045,0,0.091-0.003,0.137-0.01c0.276-0.038,0.524-0.19,0.684-0.419l6.214-8.929   c0.315-0.453,0.204-1.076-0.25-1.392C44.172,36.618,43.55,36.731,43.234,37.186z" fill="#428214"/>
	<path d="M38.702,26.757c1.129,0,2.23,0.121,3.294,0.345c2.336-7.301,0.713-16.215-4.557-21.484C33.816,1.995,29.001,0,23.879,0   c-5.123,0-9.938,1.995-13.56,5.617c-6.703,6.702-7.536,19.312-1.804,26.952l15.363,22.188l1.85-2.672   c-1.896-2.63-3.027-5.846-3.027-9.328C22.702,33.935,29.879,26.757,38.702,26.757z M17.055,19c0-3.859,3.141-7,7-7s7,3.141,7,7   s-3.141,7-7,7S17.055,22.859,17.055,19z" fill="#428214"/>
</g>
<g>
</g>
<g>
</g>
<g>
</g>
<g>
</g>
<g>
</g>
<g>
</g>
<g>
</g>
<g>
</g>
<g>
</g>
<g>
</g>
<g>
</g>
<g>
</g>
<g>
</g>
<g>
</g>
<g>
</g>
</svg>
